<svg xmlns="http://www.w3.org/2000/svg" viewBox="0 0 912.13 312.9"><title>lrf-logo</title><rect width="283.47" height="311.76" style="fill:#569ad4"/><polygon points="179.56 244.56 73.3 244.56 73.3 30.79 45.53 30.79 45.53 268.79 179.56 268.79 179.56 244.56" style="fill:#fff"/><path d="M244.5,131c0,30-21,47.12-56.63,47.12H156.18l97.94,120H288L207.47,200c40.27-3.54,64.63-31.08,64.63-69C272.1,86.55,242.18,60,191.57,60h-35.3V84.18h32.66C224.61,84.18,244.5,101.23,244.5,131Z" transform="translate(-28.72 -29.27)" style="fill:#fff"/><path d="M403.09,240.39v5.76H369.15V178.08h6.63v62.31Z" transform="translate(-28.72 -29.27)" style="fill:#003a65"/><path d="M416.37,178.08v68.07h-6.05V178.08Z" transform="translate(-28.72 -29.27)" style="fill:#003a65"/><path d="M448.94,247.32c-15.7,0-22.73-12.29-22.73-25.55s7-25.56,22.73-25.56,22.82,12.2,22.82,25.56S464.74,247.32,448.94,247.32Zm0-45.94c-10.43,0-16.09,9.07-16.09,20.39s5.66,20.37,16.09,20.37,16.19-9.16,16.19-20.37S459.47,201.38,448.94,201.38Z" transform="translate(-28.72 -29.27)" style="fill:#003a65"/><path d="M509.49,197.38h6.35l-19.51,56.08c-1.37,3.81-3,7.61-5.46,10.14a10,10,0,0,1-7.61,3.22,16.56,16.56,0,0,1-5.66-.88v-5.17a12.77,12.77,0,0,0,4.78.88c5.08,0,6.93-4.29,8.78-10.63l1.27-4.29-17.36-49.35h6.63l13.65,40.67h.1Z" transform="translate(-28.72 -29.27)" style="fill:#003a65"/><path d="M561.46,178.08v68.07h-6.05v-7.71h-.19c-3.32,6.14-8.19,8.88-15.21,8.88-13.36,0-20.09-11.12-20.09-25.55,0-14.83,6.24-25.56,20.09-25.56a16.55,16.55,0,0,1,15.21,9.37h.19v-27.5ZM541,201.38c-11.51,0-14.43,10.92-14.43,20.39s2.92,20.37,14.43,20.37c10.73,0,14.43-11.5,14.43-20.37S551.71,201.38,541,201.38Z" transform="translate(-28.72 -29.27)" style="fill:#003a65"/><path d="M575.9,178.08h5.94l-5.07,19.36h-5.95Z" transform="translate(-28.72 -29.27)" style="fill:#003a65"/><path d="M595.53,247.32A35.53,35.53,0,0,1,582,245v-6a28.5,28.5,0,0,0,13.16,3.21c5.76,0,10.83-3.21,10.83-8.77,0-11.51-23.4-9.75-23.4-23.89,0-9.66,7.79-13.27,15.89-13.27a29.41,29.41,0,0,1,11.7,2.34v5.27A25.85,25.85,0,0,0,599,201.38c-7.11,0-10.43,2.93-10.43,7.41,0,3.51,1.85,5.27,5.85,7.22,7.31,3.42,18.14,7,18.14,17.36S603,247.32,595.53,247.32Z" transform="translate(-28.72 -29.27)" style="fill:#003a65"/><path d="M685.1,246.16h-7.31l-9.66-22.72c-3.8-9-7-9.46-13.46-9.46H649v32.18h-6.63V178.09h17.56c12.09,0,19.89,5.07,19.89,17.55,0,8.78-6.63,14.34-14.52,15.7v.2a9.27,9.27,0,0,1,5.36,3.12,15.25,15.25,0,0,1,1.56,2.44c.49,1,1,2,1.46,3.11ZM656,183.84h-7v24.38h7.22c7.9,0,17-3,17-12.58C673.2,184.52,665.31,183.84,656,183.84Z" transform="translate(-28.72 -29.27)" style="fill:#003a65"/><path d="M728.35,222.75H695.09c0,11.12,5.56,19.41,16,19.41,4.39,0,11.31-1.85,14.13-3.7v5.75a39.76,39.76,0,0,1-14.62,3.12c-16.1,0-22.14-10.92-22.14-25.55,0-14.92,8.19-25.55,20.58-25.55,13.75,0,19.31,10.82,19.31,23.5Zm-6.54-5.17c0-7.8-3.41-16.18-12.39-16.18s-14.14,8.38-14.33,16.18Z" transform="translate(-28.72 -29.27)" style="fill:#003a65"/><path d="M777.9,197.4v44.76c0,13.56-6.15,24.67-22.92,24.67A41.31,41.31,0,0,1,740.26,264v-5.95a36.06,36.06,0,0,0,14.82,3.6c15.5,0,16.87-11.31,16.87-25.06h-.2c-3.31,7-8.58,9.56-14.82,9.56-15.6,0-20.57-13.56-20.57-24.38,0-14.82,5.75-25.55,20.08-25.55,6.54,0,11.41,1.66,15.21,6.73h.2V197.4Zm-20.48,4c-11.51,0-14.43,10.92-14.43,20.38S746.79,241,757,241c10.92,0,14.82-10.34,14.82-19.21C771.85,210,768.34,201.4,757.42,201.4Z" transform="translate(-28.72 -29.27)" style="fill:#003a65"/><path d="M796.3,179.94v8h-6v-8Zm0,17.46v48.76h-6V197.4Z" transform="translate(-28.72 -29.27)" style="fill:#003a65"/><path d="M819.5,247.33A35.39,35.39,0,0,1,805.94,245v-6.05a28.58,28.58,0,0,0,13.17,3.22c5.75,0,10.83-3.22,10.83-8.78,0-11.5-23.41-9.75-23.41-23.89,0-9.65,7.8-13.26,15.89-13.26a29.29,29.29,0,0,1,11.71,2.34v5.26A25.84,25.84,0,0,0,823,201.4c-7.12,0-10.44,2.92-10.44,7.41,0,3.51,1.86,5.26,5.86,7.21,7.31,3.42,18.13,7,18.13,17.36S826.91,247.33,819.5,247.33Z" transform="translate(-28.72 -29.27)" style="fill:#003a65"/><path d="M865.79,246a21,21,0,0,1-7.22,1.37,11,11,0,0,1-6.92-2.05c-3.32-2.34-4.2-6.63-4.2-13.26V202.56h-7.8V197.4h7.8V185.6l6-2.15v14h11.12v5.16H853.5v31.51c0,4.77,1.66,8.09,6.53,8.09a13.9,13.9,0,0,0,5.76-1.27Z" transform="translate(-28.72 -29.27)" style="fill:#003a65"/><path d="M908.52,222.75H875.26c0,11.12,5.56,19.41,16,19.41,4.39,0,11.31-1.85,14.14-3.7v5.75a39.81,39.81,0,0,1-14.63,3.12c-16.09,0-22.14-10.92-22.14-25.55,0-14.92,8.2-25.55,20.58-25.55,13.75,0,19.31,10.82,19.31,23.5ZM902,217.58c0-7.8-3.42-16.18-12.39-16.18s-14.14,8.38-14.34,16.18Z" transform="translate(-28.72 -29.27)" style="fill:#003a65"/><path d="M940.85,203.15a15,15,0,0,0-4.39-.59c-9.55,0-12.09,10.73-12.09,19.51v24.09h-6V208.32a86,86,0,0,0-.39-10.92H924v9.36h.2c2-5.66,6-10.43,12.28-10.43a18.47,18.47,0,0,1,4.39.58Z" transform="translate(-28.72 -29.27)" style="fill:#003a65"/><path d="M401.46,272.93v5.76H375.81v24.38h24.48v5.75H375.81V341h-6.63V272.93Z" transform="translate(-28.72 -29.27)" style="fill:#003a65"/><path d="M428.86,342.17c-15.7,0-22.73-12.28-22.73-25.55s7-25.55,22.73-25.55,22.81,12.19,22.81,25.55S444.65,342.17,428.86,342.17Zm0-45.93c-10.44,0-16.1,9.07-16.1,20.38S418.42,337,428.86,337,445,327.84,445,316.62,439.39,296.24,428.86,296.24Z" transform="translate(-28.72 -29.27)" style="fill:#003a65"/><path d="M493.83,341v-8.68h-.2c-2.05,4.38-5.65,9.84-15.8,9.84-12.09,0-16.67-8-16.67-18.72V292.24h6v29.65c0,9.16,3.22,15.12,11.51,15.12,11,0,14.53-9.66,14.53-17.75v-27h6.05v37.35c0,3.71,0,7.52.29,11.42Z" transform="translate(-28.72 -29.27)" style="fill:#003a65"/><path d="M549.68,341h-6V311.36c0-9.17-3.22-15.12-11.51-15.12-11,0-14.43,9.65-14.43,17.85V341h-6.05V303.75a114.49,114.49,0,0,0-.39-11.51h5.86v8.68h.19c2-4.39,5.65-9.85,15.8-9.85,12,0,16.58,8.1,16.58,18.73Z" transform="translate(-28.72 -29.27)" style="fill:#003a65"/><path d="M600.94,272.93V341h-6.05V333.3h-.19c-3.32,6.14-8.19,8.87-15.22,8.87-13.35,0-20.09-11.12-20.09-25.55,0-14.82,6.24-25.55,20.09-25.55a16.57,16.57,0,0,1,15.22,9.36h.19v-27.5Zm-20.49,23.31c-11.5,0-14.42,10.92-14.42,20.38S569,337,580.45,337c10.73,0,14.44-11.51,14.44-20.39S591.18,296.24,580.45,296.24Z" transform="translate(-28.72 -29.27)" style="fill:#003a65"/><path d="M641.66,341V333.2h-.19c-2.74,5.76-9.46,9-15.51,9-13.85,0-16.09-9.36-16.09-13.75,0-16.38,17.36-17.16,30-17.16h1.18v-2.44c0-8.39-3-12.58-11.12-12.58a26.17,26.17,0,0,0-14.34,4v-5.85A39.48,39.48,0,0,1,630,291.07c12,0,17.07,5.46,17.07,18.14v21.56a69.12,69.12,0,0,0,.48,10.24Zm-.58-24.58h-1.76c-10.43,0-22.82,1.07-22.82,11.8,0,6.34,4.58,8.78,10.14,8.78,14.14,0,14.44-12.39,14.44-17.66Z" transform="translate(-28.72 -29.27)" style="fill:#003a65"/><path d="M679.25,340.81a20.89,20.89,0,0,1-7.22,1.36,11,11,0,0,1-6.92-2c-3.32-2.34-4.2-6.64-4.2-13.26V297.41h-7.8v-5.17h7.8v-11.8L667,278.3v13.94h11.12v5.17H667v31.5c0,4.78,1.66,8.1,6.53,8.1a13.86,13.86,0,0,0,5.76-1.27Z" transform="translate(-28.72 -29.27)" style="fill:#003a65"/><path d="M693.13,274.79v8h-6v-8Zm0,17.45V341h-6V292.24Z" transform="translate(-28.72 -29.27)" style="fill:#003a65"/><path d="M725.92,342.17c-15.7,0-22.73-12.28-22.73-25.55s7-25.55,22.73-25.55,22.81,12.19,22.81,25.55S741.71,342.17,725.92,342.17Zm0-45.93c-10.44,0-16.1,9.07-16.1,20.38S715.48,337,725.92,337s16.18-9.17,16.18-20.39S736.45,296.24,725.92,296.24Z" transform="translate(-28.72 -29.27)" style="fill:#003a65"/><path d="M796.83,341h-6V311.36c0-9.17-3.22-15.12-11.51-15.12-11,0-14.44,9.65-14.44,17.85V341h-6V303.75a114.49,114.49,0,0,0-.39-11.51h5.85v8.68h.2c1.94-4.39,5.65-9.85,15.8-9.85,12,0,16.57,8.1,16.57,18.73Z" transform="translate(-28.72 -29.27)" style="fill:#003a65"/></svg>